<svg width="1000" height="340" viewBox="0 0 1000 340" fill="none" xmlns="http://www.w3.org/2000/svg" role="img" aria-labelledby="title desc">
  <title id="title">Kubernetes Deployments quick summary</title>
  <desc id="desc">Deployment owns ReplicaSets • replicas scale apps • rollout changes versions • rollback restores safety</desc>
  <rect width="1000" height="340" rx="24" fill="#111827"/>
  <rect x="28" y="28" width="944" height="284" rx="20" fill="#0f172a" stroke="#334155" stroke-width="2"/>
  <text x="64" y="82" fill="#f8fafc" font-family="Segoe UI, Arial, sans-serif" font-size="34" font-weight="800">🚀 Kubernetes Deployments</text>
  <text x="64" y="118" fill="#cbd5e1" font-family="Segoe UI, Arial, sans-serif" font-size="17" font-weight="600">80/20 quick map: Deployment owns ReplicaSets • replicas scale apps • rollout changes versions • rollback restores safety</text>
  <g font-family="Segoe UI, Arial, sans-serif">
    <g transform="translate(70 165)">
      <rect width="190" height="105" rx="16" fill="#0b1220" stroke="#f59e0b" stroke-width="3"/>
      <circle cx="36" cy="36" r="20" fill="#f59e0b"/>
      <text x="36" y="43" text-anchor="middle" fill="#0f172a" font-size="18" font-weight="800">01</text>
      <text x="96" y="48" text-anchor="middle" fill="#f8fafc" font-size="22" font-weight="800">Deploy</text>
      <text x="96" y="78" text-anchor="middle" fill="#94a3b8" font-size="13" font-weight="600">DevOps focus</text>
    </g>
    <path d="M266 218 H304" stroke="#64748b" stroke-width="4" stroke-linecap="round"/>
    <path d="M304 218 L292 210 M304 218 L292 226" stroke="#64748b" stroke-width="4" stroke-linecap="round"/>
    <g transform="translate(300 165)">
      <rect width="190" height="105" rx="16" fill="#0b1220" stroke="#22c55e" stroke-width="3"/>
      <circle cx="36" cy="36" r="20" fill="#22c55e"/>
      <text x="36" y="43" text-anchor="middle" fill="#0f172a" font-size="18" font-weight="800">02</text>
      <text x="96" y="48" text-anchor="middle" fill="#f8fafc" font-size="22" font-weight="800">ReplicaSet</text>
      <text x="96" y="78" text-anchor="middle" fill="#94a3b8" font-size="13" font-weight="600">DevOps focus</text>
    </g>
    <path d="M496 218 H534" stroke="#64748b" stroke-width="4" stroke-linecap="round"/>
    <path d="M534 218 L522 210 M534 218 L522 226" stroke="#64748b" stroke-width="4" stroke-linecap="round"/>
    <g transform="translate(530 165)">
      <rect width="190" height="105" rx="16" fill="#0b1220" stroke="#38bdf8" stroke-width="3"/>
      <circle cx="36" cy="36" r="20" fill="#38bdf8"/>
      <text x="36" y="43" text-anchor="middle" fill="#0f172a" font-size="18" font-weight="800">03</text>
      <text x="96" y="48" text-anchor="middle" fill="#f8fafc" font-size="22" font-weight="800">Rollout</text>
      <text x="96" y="78" text-anchor="middle" fill="#94a3b8" font-size="13" font-weight="600">DevOps focus</text>
    </g>
    <path d="M726 218 H764" stroke="#64748b" stroke-width="4" stroke-linecap="round"/>
    <path d="M764 218 L752 210 M764 218 L752 226" stroke="#64748b" stroke-width="4" stroke-linecap="round"/>
    <g transform="translate(760 165)">
      <rect width="190" height="105" rx="16" fill="#0b1220" stroke="#a78bfa" stroke-width="3"/>
      <circle cx="36" cy="36" r="20" fill="#a78bfa"/>
      <text x="36" y="43" text-anchor="middle" fill="#0f172a" font-size="18" font-weight="800">04</text>
      <text x="96" y="48" text-anchor="middle" fill="#f8fafc" font-size="22" font-weight="800">Rollback</text>
      <text x="96" y="78" text-anchor="middle" fill="#94a3b8" font-size="13" font-weight="600">DevOps focus</text>
    </g>
  </g>
</svg>